<svg width="130" height="47" viewBox="0 0 130 47" fill="none" xmlns="http://www.w3.org/2000/svg">
<g clip-path="url(#clip0)">
<path d="M64.7496 14.5185L70.9315 14.1281C71.0664 15.1391 71.3391 15.9087 71.7498 16.4371C72.4208 17.2935 73.377 17.7217 74.6186 17.7217C75.5451 17.7217 76.2599 17.5032 76.7631 17.0664C76.9936 16.885 77.1808 16.654 77.311 16.3904C77.4412 16.1268 77.5111 15.8372 77.5156 15.5428C77.5118 15.2606 77.4467 14.9827 77.3248 14.7285C77.2029 14.4743 77.0273 14.25 76.8102 14.0713C76.3399 13.6392 75.2308 13.2299 73.4829 12.8435C70.6329 12.2 68.6005 11.3437 67.3856 10.2743C66.7943 9.77613 66.3223 9.15036 66.0043 8.44348C65.6864 7.7366 65.5308 6.96675 65.5491 6.19109C65.5536 5.09494 65.8809 4.02473 66.4896 3.11564C67.1849 2.09102 68.167 1.29726 69.3114 0.835071C70.5655 0.28149 72.2899 0.00469971 74.4846 0.00469971C77.1715 0.00469971 79.2204 0.507812 80.6313 1.51404C82.0421 2.52026 82.8816 4.1195 83.1497 6.31174L77.0241 6.67133C76.8674 5.72504 76.5256 5.03267 75.9989 4.59422C75.4722 4.15577 74.7511 3.93733 73.8356 3.93891C73.0808 3.93891 72.5117 4.10215 72.1308 4.42389C71.9509 4.56309 71.8054 4.74232 71.7059 4.94755C71.6063 5.15277 71.5554 5.3784 71.557 5.60675C71.5627 5.78395 71.608 5.9576 71.6894 6.11484C71.7708 6.27209 71.8863 6.40891 72.0273 6.51519C72.333 6.79435 73.0596 7.05458 74.2071 7.29588C77.0477 7.91097 79.0856 8.53395 80.3209 9.16481C81.5562 9.79567 82.4497 10.5772 83.0015 11.5093C83.5647 12.4548 83.8553 13.5393 83.841 14.6415C83.8478 15.9761 83.4589 17.2824 82.7241 18.3935C81.9592 19.5521 80.8712 20.4574 79.5966 20.9958C78.2563 21.5873 76.568 21.883 74.5316 21.883C70.9558 21.883 68.479 21.1906 67.101 19.8059C65.7231 18.4211 64.9393 16.6587 64.7496 14.5185ZM1.47436 21.5281V0.361925H12.3051C14.3133 0.361925 15.848 0.534624 16.9093 0.88002C17.9547 1.21595 18.8585 1.89375 19.4771 2.80573C20.1504 3.81796 20.4931 5.01623 20.4576 6.23367C20.4849 7.29608 20.2248 8.34599 19.7052 9.27127C19.2065 10.129 18.5003 10.846 17.6523 11.3555C16.9394 11.7511 16.1701 12.0336 15.3714 12.1929C15.969 12.37 16.5383 12.6321 17.0621 12.9713C17.4514 13.2968 17.8018 13.6668 18.1062 14.0737C18.4486 14.4781 18.7518 14.9146 19.0115 15.3772L22.1577 21.5281H14.8141L11.3434 15.0531C10.9029 14.2156 10.511 13.6715 10.1677 13.4208C9.69985 13.0946 9.14253 12.9234 8.57339 12.9311H7.99494V21.5281H1.47436ZM7.99494 8.93297H10.7414C11.3227 8.88931 11.8988 8.79271 12.4627 8.64435C12.8841 8.56301 13.2599 8.32584 13.5161 7.97958C13.7871 7.62981 13.9314 7.19754 13.9253 6.75413C13.943 6.45975 13.894 6.16518 13.7819 5.89265C13.6699 5.62012 13.4978 5.37675 13.2786 5.18092C12.8491 4.81502 12.041 4.63207 10.8543 4.63207H7.99494V8.93297ZM0 39.6402L6.18197 39.2522C6.31678 40.2631 6.58955 41.0328 7.00027 41.5611C7.66338 42.4175 8.62199 42.8457 9.8761 42.8457C10.8026 42.8457 11.5174 42.6265 12.0206 42.1881C12.2511 42.0067 12.4383 41.7757 12.5685 41.5121C12.6987 41.2485 12.7686 40.9589 12.7731 40.6645C12.7689 40.3824 12.7037 40.1046 12.5818 39.8504C12.46 39.5963 12.2845 39.3719 12.0676 39.193C11.5974 38.7609 10.4883 38.3524 8.74035 37.9676C5.89039 37.321 3.85795 36.4646 2.64303 35.3984C2.05191 34.8996 1.57991 34.2734 1.262 33.5662C0.944098 32.8589 0.788436 32.0888 0.806548 31.3128C0.811753 30.2168 1.139 29.1467 1.74713 28.2373C2.4424 27.2127 3.42451 26.419 4.56887 25.9568C5.82298 25.4032 7.54738 25.1264 9.74206 25.1264C12.429 25.1264 14.4779 25.6295 15.8888 26.6357C17.2996 27.642 18.1391 29.2412 18.4072 31.4334L12.2934 31.7954C12.1366 30.8491 11.7949 30.1559 11.2682 29.7159C10.7414 29.2759 10.0211 29.0598 9.10717 29.0677C8.35314 29.0677 7.78487 29.2254 7.40237 29.5409C7.22244 29.6801 7.077 29.8593 6.97745 30.0645C6.87791 30.2697 6.82697 30.4954 6.82862 30.7237C6.83398 30.9013 6.87904 31.0754 6.96045 31.2331C7.04187 31.3908 7.15755 31.528 7.29891 31.6345C7.60459 31.9137 8.33119 32.1731 9.4787 32.4129C12.3193 33.0279 14.3572 33.6509 15.5925 34.2818C16.8278 34.9126 17.7213 35.6941 18.2731 36.6262C18.8359 37.5719 19.1266 38.6563 19.1126 39.7584C19.1197 41.0931 18.7308 42.3995 17.9957 43.5105C17.2308 44.669 16.1428 45.5744 14.8682 46.1128C13.5279 46.7042 11.8396 47 9.8032 47C6.22743 47 3.75057 46.3076 2.37261 44.9228C0.994664 43.5381 0.203792 41.7772 0 39.6402ZM38.3287 37.9818L44.0239 39.7135C43.7089 41.1671 43.0927 42.5375 42.2156 43.7352C41.4164 44.7936 40.3651 45.6324 39.1587 46.1743C37.9391 46.7216 36.3871 46.9952 34.5028 46.9952C32.2172 46.9952 30.3502 46.6617 28.9017 45.9945C27.4532 45.3274 26.1991 44.1516 25.1394 42.4672C24.0859 40.7844 23.56 38.6308 23.5615 36.0064C23.5615 32.5083 24.4865 29.8184 26.3363 27.9369C28.1861 26.0553 30.804 25.1154 34.1901 25.1169C36.841 25.1169 38.9236 25.6563 40.4379 26.7351C41.9522 27.8139 43.0778 29.4699 43.8146 31.7031L38.0771 32.9877C37.9423 32.4842 37.7297 32.0052 37.4469 31.5683C37.0994 31.0829 36.6425 30.6872 36.1136 30.4138C35.5655 30.1391 34.96 30.0003 34.3477 30.0093C32.8756 30.0093 31.7477 30.6054 30.9639 31.7978C30.3682 32.6825 30.0711 34.0712 30.0727 35.9638C30.0727 38.3075 30.427 39.9146 31.1356 40.7852C31.8441 41.6558 32.8388 42.0903 34.1196 42.0887C35.3611 42.0887 36.3017 41.7378 36.9413 41.0359C37.5809 40.3341 38.0434 39.3161 38.3287 37.9818ZM49.0301 25.4836H55.5272V32.8836H62.6286V25.4836H69.1538V46.6404H62.6286V38.0882H55.5272V46.6475H49.0301V25.4836ZM73.1983 36.075C73.1983 32.6242 74.1546 29.9351 76.0671 28.0079C77.9796 26.0806 80.6446 25.1185 84.062 25.1217C87.561 25.1217 90.2573 26.068 92.151 27.9606C94.0447 29.8531 94.9939 32.5004 94.9986 35.9023C94.9986 38.3769 94.5848 40.4051 93.7571 41.987C92.9516 43.548 91.7035 44.8333 90.1711 45.6799C88.6035 46.5599 86.6549 47 84.3254 47C81.9551 47 79.9956 46.6199 78.4468 45.8597C76.8555 45.0663 75.5388 43.8091 74.668 42.2519C73.6867 40.6085 73.1968 38.5496 73.1983 36.075ZM79.6954 36.1058C79.6954 38.2428 80.0873 39.7774 80.8711 40.7095C81.6549 41.6416 82.7288 42.1076 84.0926 42.1076C85.4894 42.1076 86.5703 41.651 87.3353 40.7379C88.1003 39.8247 88.4828 38.1844 88.4828 35.8171C88.4828 33.8252 88.083 32.3695 87.2835 31.45C86.484 30.5305 85.4008 30.0716 84.0338 30.0731C83.4395 30.0516 82.848 30.1656 82.3036 30.4065C81.7591 30.6474 81.2759 31.0089 80.8899 31.4642C80.0951 32.4105 79.697 33.9577 79.6954 36.1058Z" fill="white"/>
<path d="M92.2427 36.075C92.2427 32.6242 93.1989 29.9351 95.1115 28.0078C97.024 26.0806 99.6889 25.1185 103.106 25.1217C106.608 25.1217 109.306 26.0679 111.198 27.9605C113.09 29.8531 114.036 32.5012 114.036 35.9047C114.036 38.3792 113.623 40.4074 112.797 41.9893C111.991 43.5499 110.743 44.835 109.211 45.6822C107.643 46.5623 105.695 47.0023 103.365 47.0023C100.993 47.0023 99.0337 46.6222 97.4864 45.862C95.895 45.0681 94.5776 43.8111 93.7053 42.2543C92.7302 40.6093 92.2427 38.5495 92.2427 36.075ZM98.7421 36.1057C98.7421 38.2428 99.134 39.7774 99.9178 40.7095C100.702 41.6416 101.777 42.1084 103.144 42.11C104.541 42.11 105.622 41.6534 106.387 40.7402C107.152 39.827 107.534 38.1868 107.534 35.8195C107.534 33.8275 107.135 32.3718 106.337 31.4523C105.539 30.5329 104.456 30.0739 103.088 30.0755C102.492 30.0524 101.899 30.1654 101.354 30.4059C100.808 30.6465 100.323 31.0083 99.9366 31.4642C99.1387 32.4105 98.7405 33.9577 98.7421 36.1057Z" fill="white"/>
<path d="M113.359 25.4836H119.858V41.431H130V46.6356H113.359V25.4836Z" fill="white"/>
</g>
<defs>
<clipPath id="clip0">
<rect width="130" height="47" fill="white"/>
</clipPath>
</defs>
</svg>
